<svg width="32" height="32" viewBox="0 0 32 32" fill="none" xmlns="http://www.w3.org/2000/svg">
<path d="M18.2 29.3333H13.8C13.5556 29.3333 13.3389 29.2556 13.15 29.1C12.9611 28.9444 12.8444 28.7444 12.8 28.5L12.2667 25.1333C11.8444 24.9778 11.4 24.7667 10.9333 24.5C10.4667 24.2333 10.0556 23.9556 9.7 23.6667L6.6 25.1C6.35556 25.2111 6.11111 25.2278 5.86667 25.15C5.62222 25.0722 5.43333 24.9111 5.3 24.6667L3.1 20.7667C2.96667 20.5444 2.93333 20.3111 3 20.0667C3.06667 19.8222 3.2 19.6222 3.4 19.4667L6.26667 17.3667C6.22222 17.1667 6.19444 16.9389 6.18333 16.6833C6.17222 16.4278 6.16667 16.2 6.16667 16C6.16667 15.8 6.17222 15.5722 6.18333 15.3167C6.19444 15.0611 6.22222 14.8333 6.26667 14.6333L3.4 12.5333C3.2 12.3778 3.06667 12.1778 3 11.9333C2.93333 11.6889 2.96667 11.4556 3.1 11.2333L5.3 7.33333C5.43333 7.08889 5.62222 6.92777 5.86667 6.85C6.11111 6.77222 6.35556 6.78889 6.6 6.9L9.7 8.33333C10.0556 8.04444 10.4667 7.76666 10.9333 7.5C11.4 7.23333 11.8444 7.03333 12.2667 6.9L12.8 3.5C12.8444 3.25555 12.9611 3.05555 13.15 2.9C13.3389 2.74444 13.5556 2.66666 13.8 2.66666H18.2C18.4444 2.66666 18.6611 2.74444 18.85 2.9C19.0389 3.05555 19.1556 3.25555 19.2 3.5L19.7333 6.86666C20.1556 7.02222 20.6056 7.22778 21.0833 7.48333C21.5611 7.73889 21.9667 8.02222 22.3 8.33333L25.4 6.9C25.6444 6.78889 25.8889 6.77222 26.1333 6.85C26.3778 6.92777 26.5667 7.08889 26.7 7.33333L28.9 11.2C29.0333 11.4222 29.0722 11.6611 29.0167 11.9167C28.9611 12.1722 28.8222 12.3778 28.6 12.5333L25.7333 14.5667C25.7778 14.7889 25.8056 15.0278 25.8167 15.2833C25.8278 15.5389 25.8333 15.7778 25.8333 16C25.8333 16.2222 25.8278 16.4556 25.8167 16.7C25.8056 16.9444 25.7778 17.1778 25.7333 17.4L28.6 19.4667C28.8 19.6222 28.9333 19.8222 29 20.0667C29.0667 20.3111 29.0333 20.5444 28.9 20.7667L26.7 24.6667C26.5667 24.9111 26.3778 25.0722 26.1333 25.15C25.8889 25.2278 25.6444 25.2111 25.4 25.1L22.3 23.6667C21.9444 23.9556 21.5389 24.2389 21.0833 24.5167C20.6278 24.7944 20.1778 25 19.7333 25.1333L19.2 28.5C19.1556 28.7444 19.0389 28.9444 18.85 29.1C18.6611 29.2556 18.4444 29.3333 18.2 29.3333V29.3333ZM16 20.3333C17.2 20.3333 18.2222 19.9111 19.0667 19.0667C19.9111 18.2222 20.3333 17.2 20.3333 16C20.3333 14.8 19.9111 13.7778 19.0667 12.9333C18.2222 12.0889 17.2 11.6667 16 11.6667C14.8 11.6667 13.7778 12.0889 12.9333 12.9333C12.0889 13.7778 11.6667 14.8 11.6667 16C11.6667 17.2 12.0889 18.2222 12.9333 19.0667C13.7778 19.9111 14.8 20.3333 16 20.3333Z" fill="#DF31D8"/>
</svg>
